<svg xmlns="http://www.w3.org/2000/svg" version="1.1" xmlns:xlink="http://www.w3.org/1999/xlink" width="24" height="24" x="0" y="0" viewBox="0 0 64 64" style="enable-background:new 0 0 512 512" xml:space="preserve" class=""><g><path d="M36.978 22.882c-.035-.299-.234-.536-.478-.697L21 13.236c-.274-.12-.596-.178-.878-.04-.13-.01-15.5 8.947-15.622 8.989-.083.07-.177.131-.247.217-.169.174-.225.415-.253.649v17.898a1 1 0 0 0 .5.866L20 50.764c.157.07.326.134.5.133.174.001.343-.064.5-.133l15.5-8.949c1.126-.665.138-2.379-1-1.732l-14 8.083V32.578c3.351-1.939 10.169-5.87 13.5-7.795v11.166a1 1 0 1 0 2 0V23.051a4.005 4.005 0 0 0-.022-.17zM28.25 26.37l-13.5-7.794 5.75-3.319L34 23.051l-5.75 3.32zm-7.75 4.475L7 23.051l5.75-3.32 13.5 7.794zM6 24.783l13.5 7.795v15.588L6 40.372zM49 10h3.142c1.2 4.487 7.799 3.668 7.858-1-.06-4.666-6.658-5.488-7.858-1H49c-1.654 0-3 1.346-3 3v20h-5a1 1 0 1 0 0 2h5v20c0 1.654 1.346 3 3 3h3.142c1.189 4.466 7.796 3.688 7.858-1-.068-4.69-6.663-5.469-7.858-1H49a1 1 0 0 1-1-1V33h4.142c.447 1.72 2 3 3.858 3 5.283-.166 5.288-7.833 0-8-1.859 0-3.411 1.28-3.858 3H48V11a1 1 0 0 1 1-1zm7-3c2.637.07 2.637 3.93 0 4-2.637-.07-2.637-3.93 0-4zm0 46c2.637.07 2.637 3.93 0 4-2.637-.07-2.637-3.93 0-4zm0-23c2.637.07 2.637 3.93 0 4-2.637-.07-2.637-3.93 0-4z" fill="#000000" opacity="1" data-original="#000000" class=""></path></g></svg>