<svg xmlns="http://www.w3.org/2000/svg" version="1.1" xmlns:xlink="http://www.w3.org/1999/xlink" width="24" height="24" x="0" y="0" viewBox="0 0 53 53" style="enable-background:new 0 0 512 512" xml:space="preserve" class=""><g><path d="M41.981 51H11.018c-2.04 0-3.7-1.66-3.7-3.7V5.7c0-2.04 1.66-3.7 3.7-3.7h22.94a.5.5 0 0 1 .5.5v8.023c0 1.489 1.212 2.7 2.701 2.7h8.023a.5.5 0 0 1 .5.5V47.3c0 2.04-1.66 3.7-3.7 3.7zM11.018 3a2.703 2.703 0 0 0-2.7 2.7v41.6c0 1.49 1.211 2.7 2.7 2.7h30.963c1.49 0 2.7-1.21 2.7-2.7V14.223H37.16c-2.04 0-3.7-1.66-3.7-3.7V3z" fill="currentColor" opacity="1" data-original="#000000"></path><path d="M38.781 44.6H14.218a.5.5 0 0 1-.5-.5V24.9a.5.5 0 1 1 1 0v18.7h24.063a.5.5 0 1 1 0 1zM45.182 14.223h-8.023c-2.04 0-3.7-1.66-3.7-3.7V2.5a.5.5 0 0 1 .853-.354L45.535 13.37a.5.5 0 0 1-.353.854zM34.459 3.707v6.816c0 1.489 1.211 2.7 2.7 2.7h6.816z" fill="currentColor" opacity="1" data-original="#000000"></path><path d="M21.573 44.606h-3.68a.5.5 0 0 1-.5-.5v-9.328a.5.5 0 0 1 .5-.5h3.68a.5.5 0 0 1 .5.5v9.328a.5.5 0 0 1-.5.5zm-3.18-1h2.68v-8.328h-2.68zM28.933 44.606h-3.68a.5.5 0 0 1-.5-.5V27.573a.5.5 0 0 1 .5-.5h3.68a.5.5 0 0 1 .5.5v16.533a.5.5 0 0 1-.5.5zm-3.18-1h2.68V28.073h-2.68zM36.293 44.606h-3.68a.5.5 0 0 1-.5-.5v-9.328a.5.5 0 0 1 .5-.5h3.68a.5.5 0 0 1 .5.5v9.328a.5.5 0 0 1-.5.5zm-3.18-1h2.68v-8.328h-2.68zM18.276 22.538a6.982 6.982 0 0 1-6.974-6.974 6.982 6.982 0 0 1 6.974-6.974.5.5 0 0 1 .5.5v5.974H24.75a.5.5 0 0 1 .5.499v.033a6.982 6.982 0 0 1-6.974 6.942zm-.5-12.928a5.982 5.982 0 0 0-5.474 5.954 5.98 5.98 0 0 0 5.974 5.974 5.981 5.981 0 0 0 5.957-5.527c-.915.053-2.653.053-5.957.053a.5.5 0 0 1-.5-.5z" fill="currentColor" opacity="1" data-original="#000000"></path><path d="M27.818 12.996h-6.474a.5.5 0 0 1-.5-.5V6.022a.5.5 0 0 1 .5-.5 6.982 6.982 0 0 1 6.974 6.974.5.5 0 0 1-.5.5zm-5.974-1h5.454a5.984 5.984 0 0 0-5.454-5.454z" fill="currentColor" opacity="1" data-original="#000000"></path></g></svg>