<svg xmlns="http://www.w3.org/2000/svg" version="1.1" xmlns:xlink="http://www.w3.org/1999/xlink" width="24" height="24" x="0" y="0" viewBox="0 0 66 66" style="enable-background:new 0 0 512 512" xml:space="preserve" class=""><g><path d="M48.1 61.9c-.6 0-1 .4-1 1V64H2V12.5h10.1c-.5 1.6-.4 2.7-.4 3.8 0 .6.4 1 1 1h23.8c.6 0 1-.4 1-1 0-1.1.1-2.2-.4-3.8h10.1v6.9c0 .6.4 1 1 1s1-.4 1-1v-7.9c0-.6-.4-1-1-1h-12c-1-1.8-2.6-3.2-4.6-4.2-.2-3.5-3.3-6.4-7-6.4s-6.8 2.8-7 6.4c-2 .9-3.5 2.4-4.6 4.2H1c-.6 0-1 .4-1 1V65c0 .6.4 1 1 1h47.1c.6 0 1-.4 1-1v-2.1c0-.5-.5-1-1-1zm-29.2-54c.4-.2.7-.6.6-1.2 0-2.6 2.2-4.7 5-4.7s5 2.1 5 4.7c-.1.6.2 1 .6 1.2 3.2 1.2 5.2 4.1 5.3 7.4H13.7c0-3.2 2.1-6.1 5.2-7.4z" fill="currentColor" opacity="1" data-original="#000000" class=""></path><path d="M24.5 11.7c2.1 0 3.9-1.7 3.9-3.9s-1.7-3.9-3.9-3.9c-2.1 0-3.9 1.7-3.9 3.9s1.8 3.9 3.9 3.9zm0-5.8c1 0 1.9.8 1.9 1.9s-.8 1.9-1.9 1.9c-1 0-1.9-.8-1.9-1.9s.9-1.9 1.9-1.9zM14.7 23.3c0-.6-.4-1-1-1H6.9c-.6 0-1 .4-1 1v7.3c0 .6.4 1 1 1h6.8c.6 0 1-.4 1-1zm-2 6.2H7.9v-5.3h4.8zM14.7 36.7c0-.6-.4-1-1-1H6.9c-.6 0-1 .4-1 1V44c0 .6.4 1 1 1h6.8c.6 0 1-.4 1-1zm-2 6.3H7.9v-5.3h4.8zM13.7 49.2H6.9c-.6 0-1 .4-1 1v7.3c0 .6.4 1 1 1h6.8c.6 0 1-.4 1-1v-7.3c0-.6-.5-1-1-1zm-1 7.3H7.9v-5.3h4.8zM65.4 32l-18.2-9.9c-.3-.2-.7-.2-.9 0-1.2.6-15.7 8.4-18.1 9.7-.3.2-.5.6-.5.9v16c0 .3.2.7.5.8l18.1 11.4c.3.2.7.2 1 0l18.2-9.7c.3-.2.5-.5.5-.9V32.9c0-.3-.2-.7-.6-.9zm-18.6-7.9L63 32.9l-4.2 2.3-16.2-8.9zm8 13.8L38 28.8l2.4-1.3L57.7 37v4.9l-2.4 1.3v-4.4c0-.4-.2-.8-.5-.9zm-18.9-8 16.3 8.9-5.4 3-16.1-9.1zM29.6 48V34.3l16.1 9.1v14.8zm18.2 10.3V43.5l5.5-3v4.4c0 .4.2.7.5.9s.7.2 1 0l4.4-2.4c.3-.2.5-.5.5-.9V37l4.3-2.3v15.1zM32.8 26.9c0-.6-.4-1-1-1H17.5c-.6 0-1 .4-1 1s.4 1 1 1h14.3c.5 0 1-.4 1-1zM25.7 39.4h-8.3c-.6 0-1 .4-1 1s.4 1 1 1h8.3c.6 0 1-.4 1-1s-.5-1-1-1zM15.8 53.8c0 .6.4 1 1 1h13.1c.6 0 1-.4 1-1s-.4-1-1-1H16.8c-.5 0-1 .5-1 1z" fill="currentColor" opacity="1" data-original="#000000" class=""></path></g></svg>