<svg xmlns="http://www.w3.org/2000/svg" version="1.1" xmlns:xlink="http://www.w3.org/1999/xlink" width="24" height="24" x="0" y="0" viewBox="0 0 512 512" style="enable-background:new 0 0 512 512" xml:space="preserve" class=""><g><path d="M415.506 258.282V131.606a8 8 0 0 0-5.101-7.456L210.901 46.578a7.992 7.992 0 0 0-5.799 0L5.601 124.15A8 8 0 0 0 .5 131.606v230.366a8 8 0 0 0 5.101 7.456L205.103 447a7.992 7.992 0 0 0 5.798 0l102.873-39.999c16.813 34.857 52.51 58.965 93.731 58.965 57.343 0 103.994-46.651 103.994-103.994.001-54.652-42.374-99.592-95.993-103.69zm-207.504-57.687-43.969-17.096c59.145-22.994 118.286-45.991 177.428-68.989l43.97 17.096zm-111.385-43.31L274.04 88.294l45.347 17.632c-59.143 22.998-118.285 45.996-177.428 68.989zm-14.074 11.694 51.416 19.992v38.337l-21.984-18.725a8.002 8.002 0 0 0-7.563-1.549l-21.868 6.801v-44.856zM208.002 62.617l43.963 17.094-177.422 68.991-43.968-17.096zM16.5 143.3l50.043 19.458v58.346c0 3.376 1.621 6.585 4.335 8.582a10.69 10.69 0 0 0 9.478 1.586l24.6-7.65 27.446 23.376a10.675 10.675 0 0 0 11.371 1.568 10.685 10.685 0 0 0 6.187-9.673v-43.7l50.043 19.458V427.85L16.5 356.5zm199.502 284.551v-213.2L399.506 143.3v114.982c-53.619 4.098-95.994 49.039-95.994 103.69 0 10.471 1.562 20.582 4.453 30.121zm191.504 22.115c-48.521 0-87.994-39.474-87.994-87.994 0-48.521 39.474-87.995 87.994-87.995s87.994 39.475 87.994 87.995-39.474 87.994-87.994 87.994zm61.682-137.427c-4.14-4.139-9.643-6.418-15.496-6.418s-11.356 2.279-15.497 6.418l-50.521 50.523-13.828-17.401c-4.177-5.254-10.426-8.268-17.144-8.268a21.962 21.962 0 0 0-13.612 4.755 21.745 21.745 0 0 0-8.126 14.65 21.743 21.743 0 0 0 4.612 16.104l28.42 35.763a21.967 21.967 0 0 0 17.845 9.158c5.84 0 11.334-2.279 15.473-6.417l67.875-67.876c8.543-8.544 8.543-22.447-.001-30.991zm-11.314 19.678-67.875 67.876a5.772 5.772 0 0 1-4.159 1.731 5.876 5.876 0 0 1-4.883-2.541 7.776 7.776 0 0 0-.298-.398l-28.558-35.937a5.848 5.848 0 0 1-1.241-4.333 5.848 5.848 0 0 1 2.187-3.942 5.82 5.82 0 0 1 3.655-1.28c1.812 0 3.495.811 4.618 2.223l19.406 24.421a8 8 0 0 0 5.808 3.01 7.973 7.973 0 0 0 6.112-2.33l56.862-56.864a5.88 5.88 0 0 1 4.184-1.732c1.58 0 3.065.615 4.182 1.732a5.92 5.92 0 0 1 0 8.364z" fill="currentColor" opacity="1" data-original="#000000" class=""></path></g></svg>