<svg width="257" height="328" viewBox="0 0 257 328" fill="none" xmlns="http://www.w3.org/2000/svg">
<path d="M-30.6934 144.126C-26.5219 161.346 -7.26058 171.872 1.84865 174.983C14.6568 162.005 41.0297 135.411 44.0566 132.855C55.4901 97.2701 46.7435 59.2815 40.9409 44.7354C40.3527 51.714 25.2196 64.4944 17.6521 70.8855L17.6509 70.8864C-15.8132 92.6659 -35.9077 122.601 -30.6934 144.126Z" fill="#D9D9D9"/>
<path d="M-30.6934 144.126C-26.5219 161.346 -7.26058 171.872 1.84865 174.983C14.6568 162.005 41.0297 135.411 44.0566 132.855C55.4901 97.2701 46.7435 59.2815 40.9409 44.7354C40.3527 51.714 25.2196 64.4944 17.6521 70.8855L17.6509 70.8864C-15.8132 92.6659 -35.9077 122.601 -30.6934 144.126Z" fill="#AFD136"/>
<path d="M-30.6934 144.126C-26.5219 161.346 -7.26058 171.872 1.84865 174.983C14.6568 162.005 41.0297 135.411 44.0566 132.855C55.4901 97.2701 46.7435 59.2815 40.9409 44.7354C40.3527 51.714 25.2196 64.4944 17.6521 70.8855L17.6509 70.8864C-15.8132 92.6659 -35.9077 122.601 -30.6934 144.126Z" stroke="white"/>
<path d="M-7.73762 163.632C-13.9323 153.739 -18.6368 126.165 12.1025 95.0189" stroke="white" stroke-width="3.6" stroke-linecap="round"/>
<path d="M51.6242 126.465C8.10329 142.476 -2.60742 172.265 -2.52266 185.158C-4.87513 213.074 -3.69952 199.115 -4.28774 206.094C95.9454 309.428 245.525 202.55 256.876 192.964C234.072 196.665 213.068 184.586 205.416 178.084C175.481 157.989 106.025 106.45 51.6242 126.465Z" fill="#6FB13E"/>
<path d="M8.11552 182.867C7.18013 183.731 6.63414 184.926 6.60683 186.199C6.57898 187.472 7.07207 188.718 7.96845 189.654C8.86483 190.59 10.0884 191.137 11.3609 191.164C12.6339 191.192 13.8515 190.698 14.7551 189.801C14.7551 189.801 14.7551 189.801 14.7551 189.801C16.5286 188.035 18.5085 186.367 20.634 184.785C60.6881 156.388 117.448 163.951 161.064 186.762C163.502 187.996 165.964 189.295 168.449 190.662C168.86 190.888 169.348 190.941 169.804 190.813C170.26 190.685 170.645 190.387 170.878 189.98C171.112 189.574 171.174 189.09 171.055 188.632C170.935 188.175 170.643 187.78 170.24 187.539C170.24 187.539 170.24 187.539 170.24 187.539C167.77 186.065 165.319 184.658 162.887 183.315C119.409 158.785 61.1134 147.447 15.2247 177.219C12.7361 178.94 10.3653 180.786 8.11552 182.867Z" fill="white"/>
</svg>
